<svg width="175" height="200" viewBox="0 0 175 200" fill="none" xmlns="http://www.w3.org/2000/svg">
<path d="M65.1709 3.12887C61.3154 3.06129 57.5537 3.87184 53.8592 6.11715L53.8627 6.10699C52.0412 7.2152 50.1244 8.82067 48.3068 9.20895C42.3596 10.4832 37.344 13.8718 31.6826 15.6718C28.9897 16.5261 27.6943 18.1746 27.7752 20.9664C26.6705 22.9675 24.9268 24.2203 22.9006 25.1773C21.1057 26.0218 19.3955 26.9867 18.8611 29.1168C18.8525 29.1238 18.8436 29.13 18.835 29.1375C16.724 31.5976 14.5041 33.9726 12.3514 37.6504L78.3545 15.9898C75.499 13.2754 72.5342 10.9781 75.8342 6.81285C72.8744 7.01403 70.7818 8.73082 68.2885 8.34528C69.7033 6.23981 72.7311 6.68551 74.3486 4.61715C71.2248 3.76481 68.1693 3.18121 65.1709 3.12887ZM100.591 16.2718C97.8096 16.4445 95.1338 16.664 92.8256 18.6617C90.0834 21.0195 87.0014 21.6894 83.892 19.0671C81.5451 17.0867 79.258 17.4617 76.5967 18.75C70.4514 21.7324 64.1479 24.3972 57.9146 27.189C43.4554 33.6964 28.9993 40.2107 14.5463 46.732C9.92598 48.2429 9.7213 48.6628 10.7838 53.2652C11.5604 56.6253 12.9615 60.1625 9.01895 62.6683C8.58689 62.864 8.22127 63.1815 7.96686 63.5818C7.71245 63.9821 7.58028 64.4479 7.58653 64.9222C7.58263 64.9246 7.57911 64.9257 7.5752 64.9273C6.55177 68.5031 7.40997 71.9793 8.05958 75.4914C8.47247 77.7148 9.50645 77.63 11.2147 76.8183C15.0795 74.9761 19.001 73.25 22.9186 71.5242C35.3053 66.0789 47.6943 60.6375 60.0854 55.2C60.4327 55.214 60.7803 55.1822 61.1193 55.1054C60.717 55.3179 60.3451 55.5703 60.142 56.0437L47.4354 63.491L28.3014 73.239C22.8197 74.1851 18.0654 77.1464 12.8697 78.8265C9.65411 79.864 10.2932 80.9836 12.485 82.4269C14.5357 84.8976 17.5572 85.5082 20.3912 86.4683C20.3951 86.466 20.399 86.4644 20.4029 86.4617C22.599 87.4914 24.7818 88.5554 27.0025 89.5351C29.0674 90.4531 30.9869 90.7703 32.2436 88.1515C32.9498 86.6656 34.2346 86.45 35.7732 87.1562C38.1709 88.2734 40.7092 88.3066 43.2756 87.8632L43.2732 87.8656C43.2787 87.866 43.2842 87.8656 43.2889 87.8664L43.3018 87.8769L43.3197 87.8687C44.2924 87.9535 45.2529 87.966 46.0971 87.3476C47.2584 87.3476 48.4299 87.2558 49.5771 87.3722C55.0408 87.93 60.7303 86.073 65.9928 88.9816C66.992 89.532 67.9236 88.4418 68.8166 87.9867C78.2987 83.1337 87.7697 78.2591 97.2295 73.3629C109.795 66.8875 122.356 60.4132 134.912 53.9398C135.988 53.3824 138.441 53.139 136.303 50.9613V50.9433C134.836 47.9898 133.522 44.98 133.002 41.6894C133.006 41.6855 133.009 41.6816 133.012 41.6777C132.846 39.225 132.01 36.9769 130.951 34.7816C130.033 32.9004 128.999 32.3773 126.856 33.3304C121.897 35.5398 116.811 37.5558 111.728 39.3734C106.646 41.1914 101.926 44.0464 96.4627 44.7875C96.4572 44.7867 96.4518 44.7867 96.4463 44.7855L96.449 44.7839C96.3994 43.9472 97.1545 44.0425 97.61 43.7886L124.57 28.7773C124.669 26.2605 123.766 23.998 122.806 21.7531C122.804 21.7544 122.802 21.7553 122.8 21.7558L122.801 21.7531C121.509 18.4812 119.244 17.5242 115.968 18.8336C113.747 19.7536 111.381 20.2724 108.979 20.366V20.3586L108.962 20.3648L107.095 20.214C104.469 19.6527 102.817 17.489 100.59 16.2714L100.591 16.2718ZM140.271 58.8527C139.66 58.8894 138.97 59.1457 138.156 59.573C128.217 64.7863 118.189 69.8293 108.19 74.9226C96.4396 80.9226 84.6717 86.8597 72.9643 92.9234C72.2268 93.3011 70.1557 93.2203 71.144 95.066C72.4346 97.4683 72.0436 100.008 72.11 102.527C72.1088 102.527 72.1076 102.528 72.1064 102.528V102.538C72.0783 103.773 72.0529 105.005 72.0295 106.237C72.3045 108.214 73.0289 110.102 74.1471 111.755L74.1596 111.757L74.1506 111.761L75.5799 113.664L78.9295 117.857C79.5014 121.757 81.4881 121.799 84.8416 120.652C96.9975 116.487 109.274 112.661 121.504 108.708L122.21 109.436C122.213 109.435 122.216 109.434 122.219 109.434L108.889 115.743C106.669 116.336 104.654 117.373 102.659 118.499C102.367 118.467 102.071 118.515 101.805 118.64C101.538 118.764 101.311 118.96 101.149 119.205C95.8541 121.175 90.6954 123.493 85.7068 126.144C85.6246 126.105 85.5306 126.1 85.4445 126.129C85.3584 126.158 85.2867 126.219 85.2443 126.299C84.1693 126.416 83.1594 126.872 82.3607 127.602C80.5076 128.018 78.4248 128.622 78.5236 130.831C78.7705 136.355 76.8541 141.377 75.4283 146.53L75.4248 146.531C74.9863 147.295 74.7928 148.175 74.8705 149.052C74.9482 149.93 75.2933 150.762 75.8592 151.437C76.9463 152.739 78.3896 151.204 79.5826 150.77C97.6883 144.205 115.779 137.599 133.854 130.951C136.244 130.076 139.31 129.687 140.761 127.976C142.321 126.13 140.21 123.154 140.372 120.623C140.576 119.537 140.784 118.452 140.988 117.362C140.988 117.36 140.989 117.359 140.991 117.359C142.078 114.016 144.739 111.556 146.098 108.365L152.296 99.7535C153.613 96.93 156.842 96.0402 158.557 93.6156L158.477 93.6429L158.54 93.6086C162.228 91.3461 163.805 87.5128 166.403 83.5246L149.631 88.6773C148.681 88.7398 147.746 88.8793 146.819 89.0586C147.311 88.7747 147.742 88.397 148.089 87.9468C149.12 87.4527 150.161 86.9695 151.184 86.4578C156.585 83.7613 162.511 82.1902 167.593 78.816C167.456 78.7906 167.332 78.7197 167.24 78.6148C167.357 78.6781 167.473 78.7418 167.593 78.816C168.084 77.3441 167.9 75.8472 167.622 74.3894L167.632 74.4109C167.237 72.3461 166.329 71.2871 164.103 72.7765C162.695 73.7847 161.072 74.4508 159.362 74.7218C159.358 74.7246 159.353 74.7273 159.349 74.73C159.349 74.7247 159.35 74.7194 159.352 74.7144C156.257 74.4812 153.062 74.5418 150.938 71.6371H150.948C149.953 70.2711 148.894 71.2554 147.885 71.6578C140.083 74.7925 132.284 77.9328 124.487 81.0785C123.901 81.1328 123.342 81.266 122.794 81.439C123.129 81.1148 123.422 80.75 123.622 80.2914C129.26 77.3674 134.894 74.4331 140.521 71.4886C142.974 70.2039 146.984 69.2793 147.45 67.4652C148.057 65.114 144.249 63.1832 142.862 60.7125C142.085 59.3382 141.289 58.7914 140.272 58.8527H140.271ZM141.292 131.383C140.953 131.36 140.516 131.458 139.956 131.689C120.257 139.819 100.54 147.904 80.8037 155.944C79.2967 156.573 78.9717 157.123 79.7451 158.69C81.6295 162.502 83.3623 166.394 84.3334 170.569C84.3311 170.569 84.3287 170.57 84.3264 170.57H84.3334V170.575C84.4498 171.722 84.7287 172.884 84.6545 174.02C84.4779 176.65 84.9545 177.458 87.8135 176.187C100.894 170.363 114.116 164.864 127.193 159.037C132.759 156.555 136.55 152.147 138.876 146.5C138.871 146.5 138.867 146.501 138.862 146.501C138.865 146.5 138.867 146.498 138.87 146.495C142.244 142.634 142.77 138.018 142.399 133.168C142.314 132.066 142.039 131.432 141.293 131.382L141.292 131.383ZM163.009 138.6C161.437 138.612 160.408 140.237 159.679 141.691C159.028 142.987 158.556 144.374 158.004 145.723L157.999 145.727C157.032 147.721 156.259 149.503 153.192 149.016C151.035 148.673 148.077 150.385 148.285 152.429C148.716 156.696 145.861 160.35 146.736 164.514C147.073 164.823 147.401 164.94 147.723 164.949C147.334 165.185 146.97 165.467 146.662 165.849C146.118 167.921 145.525 169.985 146.101 172.156C146.104 172.156 146.106 172.155 146.111 172.155C147.792 175.856 149.054 176.327 152.685 175.291C157.083 174.029 157.065 170.282 157.793 166.901C158.46 165.169 158.949 163.419 158.749 161.356L152.395 163.283L152.391 163.3C151.892 163.488 151.321 163.346 150.82 163.553C151.144 163.295 151.432 162.993 151.65 162.605C152.73 161.973 153.756 161.208 154.904 160.728C162.856 157.421 164.144 150.45 164.741 143.08C164.776 141.502 165.87 139.3 163.717 138.7C163.487 138.634 163.249 138.6 163.009 138.601V138.6ZM127.168 161.715C113.787 168.622 101.004 175.364 88.0643 181.791C84.7393 183.447 84.1533 185.247 85.865 188.23C86.5916 190.925 88.4822 192.621 90.8029 193.955V193.959L90.8053 193.958C90.8057 193.958 90.8064 193.958 90.8068 193.959L90.8139 193.96C91.6744 195.115 92.8873 195.565 94.2553 195.713C99.1014 198.572 104.886 195.991 107.551 189.779C110.94 187.859 114.307 185.862 117.724 183.977C119.918 182.767 121.464 181.271 120.944 178.516C120.945 178.515 120.945 178.513 120.946 178.512C121.599 176.702 123.936 176.25 124.381 174.277C123.982 170.016 127.574 166.511 127.172 161.722L127.168 161.715Z" fill="#C0C0C0"/>
</svg>
