<svg width="81" height="18" viewBox="0 0 81 18" fill="none" xmlns="http://www.w3.org/2000/svg">
<path d="M11.6442 13.7165H9.37318L8.12918 9.90524H3.80518L2.62018 13.7165H0.40918L4.69318 0.741211H7.33918L11.6442 13.7165ZM7.75418 8.30624L6.62918 4.91811C6.51018 4.57199 6.28718 3.75689 5.95818 2.47379H5.91818C5.78718 3.02564 5.57618 3.84074 5.28618 4.91811L4.18118 8.30624H7.75418V8.30624Z" fill="black"/>
<path d="M22.6609 8.92304C22.6609 10.5142 22.2199 11.772 21.3379 12.6953C20.5479 13.5172 19.5669 13.9277 18.3959 13.9277C17.1319 13.9277 16.2239 13.4851 15.6709 12.5998H15.6309V17.5284H13.4989V7.44007C13.4989 6.43972 13.4719 5.41304 13.4199 4.36004H15.2949L15.4139 5.84302H15.4539C16.1649 4.72567 17.2439 4.16797 18.6919 4.16797C19.8239 4.16797 20.7689 4.60379 21.5249 5.47642C22.2829 6.35002 22.6609 7.49857 22.6609 8.92304ZM20.4889 8.99909C20.4889 8.08844 20.2789 7.33769 19.8569 6.74684C19.3959 6.13064 18.7769 5.82254 18.0009 5.82254C17.4749 5.82254 16.9969 5.99414 16.5699 6.33247C16.1419 6.67372 15.8619 7.11929 15.7309 7.67114C15.6649 7.92854 15.6319 8.13914 15.6319 8.30489V9.86489C15.6319 10.5454 15.8459 11.1197 16.2739 11.5887C16.7019 12.0577 17.2579 12.2917 17.9419 12.2917C18.7449 12.2917 19.3699 11.9894 19.8169 11.3869C20.2649 10.7833 20.4889 9.98774 20.4889 8.99909Z" fill="black"/>
<path d="M33.698 8.92304C33.698 10.5142 33.257 11.772 32.374 12.6953C31.585 13.5172 30.604 13.9277 29.433 13.9277C28.169 13.9277 27.261 13.4851 26.709 12.5998H26.669V17.5284H24.537V7.44007C24.537 6.43972 24.51 5.41304 24.458 4.36004H26.333L26.452 5.84302H26.492C27.202 4.72567 28.281 4.16797 29.73 4.16797C30.861 4.16797 31.806 4.60379 32.564 5.47642C33.319 6.35002 33.698 7.49857 33.698 8.92304ZM31.526 8.99909C31.526 8.08844 31.315 7.33769 30.893 6.74684C30.432 6.13064 29.815 5.82254 29.038 5.82254C28.511 5.82254 28.034 5.99414 27.606 6.33247C27.178 6.67372 26.899 7.11929 26.768 7.67114C26.703 7.92854 26.669 8.13914 26.669 8.30489V9.86489C26.669 10.5454 26.883 11.1197 27.309 11.5887C27.737 12.0567 28.293 12.2917 28.979 12.2917C29.782 12.2917 30.407 11.9894 30.854 11.3869C31.302 10.7833 31.526 9.98774 31.526 8.99909Z" fill="black"/>
<path d="M46.0382 10.0775C46.0382 11.1812 45.6452 12.0792 44.8562 12.7724C43.9892 13.53 42.7822 13.9083 41.2312 13.9083C39.7992 13.9083 38.6512 13.6392 37.7822 13.1L38.2762 11.3674C39.2122 11.9193 40.2392 12.1962 41.3582 12.1962C42.1612 12.1962 42.7862 12.0187 43.2352 11.6658C43.6822 11.3128 43.9052 10.839 43.9052 10.2481C43.9052 9.72163 43.7212 9.27801 43.3522 8.91823C42.9852 8.55846 42.3722 8.22403 41.5162 7.91496C39.1862 7.06768 38.0222 5.82651 38.0222 4.19436C38.0222 3.12771 38.4302 2.25313 39.2472 1.57258C40.0612 0.891057 41.1472 0.550781 42.5052 0.550781C43.7162 0.550781 44.7222 0.756506 45.5252 1.16698L44.9922 2.86153C44.2422 2.46373 43.3942 2.26483 42.4452 2.26483C41.6952 2.26483 41.1092 2.44521 40.6892 2.80401C40.3342 3.12478 40.1562 3.51576 40.1562 3.97888C40.1562 4.49173 40.3592 4.91586 40.7672 5.24931C41.1222 5.55741 41.7672 5.89086 42.7032 6.25063C43.8482 6.70011 44.6892 7.22563 45.2302 7.82818C45.7692 8.42878 46.0382 9.18051 46.0382 10.0775Z" fill="black"/>
<path d="M53.0872 5.91954H50.7372V10.4621C50.7372 11.6174 51.1512 12.1946 51.9812 12.1946C52.3622 12.1946 52.6782 12.1625 52.9282 12.0981L52.9872 13.6766C52.5672 13.8297 52.0142 13.9067 51.3292 13.9067C50.4872 13.9067 49.8292 13.6562 49.3542 13.156C48.8812 12.6548 48.6432 11.8144 48.6432 10.6337V5.9176H47.2432V4.3576H48.6432V2.64452L50.7372 2.02832V4.3576H53.0872V5.91954Z" fill="black"/>
<path d="M63.69 8.96107C63.69 10.3992 63.268 11.5799 62.426 12.5032C61.543 13.4539 60.371 13.9277 58.91 13.9277C57.502 13.9277 56.381 13.4724 55.545 12.5617C54.709 11.6511 54.291 10.5016 54.291 9.11609C54.291 7.66627 54.721 6.47872 55.584 5.5554C56.445 4.6311 57.607 4.16895 59.068 4.16895C60.476 4.16895 61.609 4.62427 62.464 5.5359C63.282 6.42022 63.69 7.56195 63.69 8.96107ZM61.478 9.02834C61.478 8.16547 61.289 7.42545 60.906 6.80827C60.459 6.06142 59.82 5.68897 58.992 5.68897C58.135 5.68897 57.484 6.0624 57.037 6.80827C56.654 7.42642 56.465 8.17815 56.465 9.06734C56.465 9.93022 56.654 10.6702 57.037 11.2864C57.498 12.0333 58.142 12.4057 58.973 12.4057C59.787 12.4057 60.426 12.0255 60.887 11.2669C61.28 10.6381 61.478 9.89024 61.478 9.02834Z" fill="black"/>
<path d="M70.6204 6.18817C70.4094 6.15014 70.1843 6.13064 69.9483 6.13064C69.1983 6.13064 68.6183 6.40657 68.2103 6.95939C67.8553 7.44689 67.6773 8.06309 67.6773 8.80702V13.7161H65.5463L65.5663 7.30649C65.5663 6.22814 65.5393 5.24632 65.4863 4.36102H67.3433L67.4213 6.15112H67.4803C67.7053 5.53589 68.0603 5.04059 68.5463 4.66912C69.0213 4.33469 69.5343 4.16797 70.0873 4.16797C70.2843 4.16797 70.4624 4.18162 70.6204 4.20599V6.18817Z" fill="black"/>
<path d="M80.1549 8.59541C80.1549 8.96786 80.1299 9.28181 80.0769 9.53824H73.681C73.706 10.4625 74.015 11.1694 74.609 11.6569C75.148 12.0927 75.845 12.3111 76.701 12.3111C77.648 12.3111 78.5119 12.1639 79.2889 11.8685L79.6229 13.3115C78.7149 13.6976 77.6429 13.8897 76.4059 13.8897C74.9179 13.8897 73.75 13.4626 72.9 12.6095C72.052 11.7564 71.627 10.6107 71.627 9.17359C71.627 7.76276 72.022 6.58789 72.813 5.65091C73.641 4.65057 74.76 4.15039 76.1679 4.15039C77.5509 4.15039 78.5979 4.65057 79.3089 5.65091C79.8719 6.44554 80.1549 7.42834 80.1549 8.59541ZM78.1219 8.05624C78.1359 7.44004 77.9969 6.90769 77.7079 6.45821C77.3389 5.88004 76.772 5.59144 76.009 5.59144C75.312 5.59144 74.745 5.87322 74.312 6.43872C73.957 6.88819 73.746 7.42736 73.681 8.05526H78.1219V8.05624Z" fill="black"/>
</svg>
