<svg width="135" height="39" viewBox="0 0 135 39" fill="none" xmlns="http://www.w3.org/2000/svg">
<path d="M134.25 34.5023C134.25 36.5806 132.531 38.2641 130.406 38.2641H4.59932C2.47462 38.2641 0.75 36.5806 0.75 34.5023V4.50262C0.75 2.42524 2.47462 0.73584 4.59932 0.73584H130.405C132.531 0.73584 134.249 2.42524 134.249 4.50262L134.25 34.5023Z" fill="white"/>
<path d="M130 0.781225C132.315 0.781225 134.199 2.61788 134.199 4.87501V34.125C134.199 36.3821 132.315 38.2188 130 38.2188H5C2.685 38.2188 0.80125 36.3821 0.80125 34.125V4.87501C0.80125 2.61788 2.685 0.781225 5 0.781225H130ZM130 7.62939e-06H5C2.25125 7.62939e-06 0 2.19498 0 4.87501V34.125C0 36.805 2.25125 39 5 39H130C132.749 39 135 36.805 135 34.125V4.87501C135 2.19498 132.749 7.62939e-06 130 7.62939e-06Z" fill="#A6A6A6"/>
<path d="M30.1281 19.2894C30.0991 16.147 32.7671 14.6182 32.8891 14.547C31.3781 12.3991 29.0361 12.1056 28.2131 12.0822C26.2461 11.8804 24.3381 13.2298 23.3361 13.2298C22.3141 13.2298 20.7711 12.1017 19.1081 12.1349C16.9681 12.167 14.9661 13.3751 13.8681 15.251C11.6021 19.0759 13.2921 24.6968 15.4631 27.7885C16.5491 29.3027 17.8181 30.9933 19.4791 30.9338C21.1041 30.8685 21.7111 29.9237 23.6721 29.9237C25.6151 29.9237 26.1851 30.9338 27.8791 30.8958C29.6231 30.8685 30.7211 29.3748 31.7691 27.847C33.0241 26.1115 33.5281 24.4023 33.5481 24.3146C33.5071 24.3009 30.1611 23.0558 30.1281 19.2894Z" fill="black"/>
<path d="M26.9281 10.0484C27.8021 8.98268 28.4001 7.53286 28.2341 6.06158C26.9691 6.11618 25.3871 6.91471 24.4761 7.95698C23.6701 8.87543 22.9501 10.3808 23.1361 11.7965C24.5571 11.8999 26.0161 11.0975 26.9281 10.0484Z" fill="black"/>
<path d="M49.0498 9.75876C49.0498 10.9063 48.6968 11.7702 47.9918 12.3503C47.3388 12.8856 46.4108 13.1537 45.2088 13.1537C44.6128 13.1537 44.1028 13.1284 43.6758 13.0777V6.80743C44.2328 6.71968 44.8328 6.67484 45.4808 6.67484C46.6258 6.67484 47.4888 6.91761 48.0708 7.40316C48.7228 7.95209 49.0498 8.73696 49.0498 9.75876ZM47.9448 9.78704C47.9448 9.04311 47.7428 8.47273 47.3388 8.07493C46.9348 7.67811 46.3448 7.47921 45.5678 7.47921C45.2378 7.47921 44.9568 7.50066 44.7238 7.54551V12.3123C44.8528 12.3318 45.0888 12.3406 45.4318 12.3406C46.2338 12.3406 46.8528 12.1231 47.2888 11.6883C47.7248 11.2534 47.9448 10.6197 47.9448 9.78704Z" fill="black"/>
<path d="M54.909 10.7611C54.909 11.4679 54.702 12.0471 54.288 12.5014C53.854 12.9685 53.279 13.2015 52.561 13.2015C51.869 13.2015 51.318 12.9782 50.907 12.5297C50.497 12.0822 50.292 11.5177 50.292 10.8371C50.292 10.1254 50.503 9.54133 50.927 9.08796C51.351 8.63458 51.921 8.40741 52.639 8.40741C53.331 8.40741 53.887 8.63068 54.308 9.07821C54.708 9.51306 54.909 10.0747 54.909 10.7611ZM53.822 10.7942C53.822 10.3701 53.728 10.0064 53.541 9.70318C53.321 9.33658 53.008 9.15328 52.601 9.15328C52.18 9.15328 51.86 9.33658 51.64 9.70318C51.452 10.0064 51.359 10.3759 51.359 10.8127C51.359 11.2369 51.453 11.6005 51.64 11.9038C51.867 12.2704 52.183 12.4537 52.591 12.4537C52.991 12.4537 53.305 12.2674 53.531 11.894C53.725 11.5849 53.822 11.2183 53.822 10.7942Z" fill="black"/>
<path d="M62.7651 8.50101L61.2901 13.0972H60.3301L59.7191 11.1013C59.5641 10.6031 59.4381 10.1078 59.3401 9.61641H59.3211C59.2301 10.1215 59.1041 10.6158 58.9421 11.1013L58.2931 13.0972H57.3221L55.9351 8.50101H57.0121L57.5451 10.686C57.6741 11.2027 57.7801 11.6951 57.8651 12.1612H57.8841C57.9621 11.777 58.0911 11.2876 58.2731 10.6957L58.9421 8.50198H59.7961L60.4371 10.6489C60.5921 11.1725 60.7181 11.6766 60.8151 12.1621H60.8441C60.9151 11.6893 61.0221 11.1852 61.1641 10.6489L61.7361 8.50198H62.7651V8.50101Z" fill="black"/>
<path d="M68.1979 13.0972H67.1499V10.4647C67.1499 9.65349 66.8339 9.24789 66.1999 9.24789C65.8889 9.24789 65.6379 9.35904 65.4429 9.58231C65.2499 9.80559 65.1519 10.0688 65.1519 10.3701V13.0962H64.1039V9.81436C64.1039 9.41071 64.0909 8.97294 64.0659 8.49909H64.9869L65.0359 9.21766H65.0649C65.1869 8.99439 65.3689 8.81011 65.6079 8.66289C65.8919 8.49129 66.2099 8.40451 66.5579 8.40451C66.9979 8.40451 67.3639 8.54296 67.6549 8.82084C68.0169 9.16111 68.1979 9.66909 68.1979 10.3438V13.0972V13.0972Z" fill="black"/>
<path d="M71.088 13.0972H70.041V6.39209H71.088V13.0972Z" fill="black"/>
<path d="M77.2581 10.7611C77.2581 11.4679 77.0511 12.0471 76.6371 12.5014C76.2031 12.9685 75.6271 13.2015 74.9101 13.2015C74.2171 13.2015 73.6661 12.9782 73.2561 12.5297C72.8461 12.0822 72.6411 11.5177 72.6411 10.8371C72.6411 10.1254 72.8521 9.54133 73.2761 9.08796C73.7001 8.63458 74.2701 8.40741 74.9871 8.40741C75.6801 8.40741 76.2351 8.63068 76.6571 9.07821C77.0571 9.51306 77.2581 10.0747 77.2581 10.7611ZM76.1701 10.7942C76.1701 10.3701 76.0761 10.0064 75.8891 9.70318C75.6701 9.33658 75.3561 9.15328 74.9501 9.15328C74.5281 9.15328 74.2081 9.33658 73.9891 9.70318C73.8011 10.0064 73.7081 10.3759 73.7081 10.8127C73.7081 11.2369 73.8021 11.6005 73.9891 11.9038C74.2161 12.2704 74.5321 12.4537 74.9401 12.4537C75.3401 12.4537 75.6531 12.2674 75.8791 11.894C76.0741 11.5849 76.1701 11.2183 76.1701 10.7942Z" fill="black"/>
<path d="M82.33 13.0972H81.389L81.311 12.5677H81.282C80.96 12.9899 80.501 13.2015 79.905 13.2015C79.46 13.2015 79.1 13.0621 78.829 12.7852C78.583 12.5336 78.46 12.2206 78.46 11.8492C78.46 11.2876 78.7 10.8595 79.183 10.5631C79.665 10.2667 80.343 10.1215 81.216 10.1283V10.0425C81.216 9.43701 80.89 9.13476 80.237 9.13476C79.772 9.13476 79.362 9.24883 79.008 9.47503L78.795 8.80423C79.233 8.54001 79.774 8.40741 80.412 8.40741C81.644 8.40741 82.262 9.04116 82.262 10.3087V12.0013C82.262 12.4605 82.285 12.8261 82.33 13.0972ZM81.242 11.5177V10.8088C80.086 10.7893 79.508 11.0984 79.508 11.7351C79.508 11.9749 79.574 12.1543 79.709 12.2743C79.844 12.3942 80.016 12.4537 80.221 12.4537C80.451 12.4537 80.666 12.3825 80.862 12.2411C81.059 12.0988 81.18 11.9184 81.225 11.6971C81.236 11.6473 81.242 11.5869 81.242 11.5177Z" fill="black"/>
<path d="M88.2851 13.0972H87.3551L87.3061 12.3591H87.2771C86.9801 12.9207 86.4741 13.2015 85.7631 13.2015C85.1952 13.2015 84.7222 12.9841 84.3472 12.5492C83.9722 12.1144 83.7852 11.5498 83.7852 10.8566C83.7852 10.1127 83.9882 9.51014 84.3962 9.04994C84.7912 8.62094 85.2751 8.40644 85.8511 8.40644C86.4841 8.40644 86.9271 8.61411 87.1791 9.03044H87.1991V6.39209H88.2481V11.8589C88.2481 12.3064 88.2601 12.7189 88.2851 13.0972ZM87.1991 11.1589V10.3925C87.1991 10.2599 87.1891 10.1527 87.1701 10.0708C87.1111 9.82506 86.9841 9.61836 86.7911 9.45164C86.5961 9.28491 86.3611 9.20106 86.0901 9.20106C85.6991 9.20106 85.3931 9.35219 85.1681 9.65541C84.9451 9.95864 84.8322 10.3457 84.8322 10.8186C84.8322 11.2729 84.9391 11.6415 85.1541 11.9252C85.3811 12.2275 85.6871 12.3786 86.0701 12.3786C86.4141 12.3786 86.6892 12.2528 86.8981 12.0003C87.1001 11.7673 87.1991 11.4865 87.1991 11.1589Z" fill="black"/>
<path d="M97.2479 10.7611C97.2479 11.4679 97.0409 12.0471 96.6269 12.5014C96.1929 12.9685 95.6189 13.2015 94.8999 13.2015C94.2089 13.2015 93.6579 12.9782 93.2459 12.5297C92.8359 12.0822 92.6309 11.5177 92.6309 10.8371C92.6309 10.1254 92.8419 9.54133 93.2659 9.08796C93.6899 8.63458 94.2599 8.40741 94.9789 8.40741C95.6699 8.40741 96.2269 8.63068 96.6469 9.07821C97.0469 9.51306 97.2479 10.0747 97.2479 10.7611ZM96.1619 10.7942C96.1619 10.3701 96.0679 10.0064 95.8809 9.70318C95.6599 9.33658 95.3479 9.15328 94.9399 9.15328C94.5199 9.15328 94.1999 9.33658 93.9789 9.70318C93.7909 10.0064 93.6979 10.3759 93.6979 10.8127C93.6979 11.2369 93.7919 11.6005 93.9789 11.9038C94.2059 12.2704 94.5219 12.4537 94.9299 12.4537C95.3299 12.4537 95.6449 12.2674 95.8709 11.894C96.0639 11.5849 96.1619 11.2183 96.1619 10.7942Z" fill="black"/>
<path d="M102.883 13.0972H101.836V10.4647C101.836 9.65349 101.52 9.24789 100.885 9.24789C100.574 9.24789 100.323 9.35904 100.129 9.58231C99.9349 9.80559 99.8379 10.0688 99.8379 10.3701V13.0962H98.789V9.81436C98.789 9.41071 98.777 8.97294 98.752 8.49909H99.6719L99.721 9.21766H99.75C99.873 8.99439 100.055 8.81011 100.293 8.66289C100.578 8.49129 100.895 8.40451 101.244 8.40451C101.683 8.40451 102.049 8.54296 102.34 8.82084C102.703 9.16111 102.883 9.66909 102.883 10.3438V13.0972V13.0972Z" fill="black"/>
<path d="M109.936 9.26641H108.782V11.4992C108.782 12.0666 108.987 12.3503 109.393 12.3503C109.581 12.3503 109.737 12.3347 109.86 12.3026L109.887 13.0777C109.68 13.1537 109.408 13.1918 109.073 13.1918C108.659 13.1918 108.337 13.0689 108.104 12.8232C107.87 12.5775 107.754 12.1641 107.754 11.584V9.26641H107.065V8.50103H107.754V7.65863L108.781 7.35638V8.50006H109.935V9.26641H109.936Z" fill="black"/>
<path d="M115.484 13.0972H114.435V10.4842C114.435 9.66029 114.119 9.24786 113.486 9.24786C113 9.24786 112.668 9.48674 112.486 9.96449C112.455 10.0649 112.437 10.1878 112.437 10.3321V13.0962H111.39V6.39209H112.437V9.16206H112.457C112.787 8.65799 113.26 8.40644 113.873 8.40644C114.307 8.40644 114.666 8.54489 114.951 8.82276C115.306 9.16889 115.484 9.68369 115.484 10.3642V13.0972V13.0972Z" fill="black"/>
<path d="M121.207 10.5816C121.207 10.7649 121.193 10.919 121.168 11.0448H118.025C118.039 11.4991 118.189 11.8452 118.48 12.0851C118.746 12.2996 119.089 12.4068 119.509 12.4068C119.974 12.4068 120.398 12.3347 120.78 12.1894L120.944 12.8992C120.497 13.0884 119.971 13.1829 119.362 13.1829C118.632 13.1829 118.057 12.9733 117.641 12.5541C117.223 12.1348 117.016 11.5722 117.016 10.8663C117.016 10.1731 117.209 9.59592 117.598 9.13572C118.004 8.64432 118.553 8.39862 119.246 8.39862C119.924 8.39862 120.439 8.64432 120.787 9.13572C121.068 9.52572 121.207 10.0083 121.207 10.5816ZM120.207 10.3174C120.215 10.0142 120.146 9.7529 120.004 9.53255C119.822 9.24882 119.545 9.10647 119.17 9.10647C118.828 9.10647 118.549 9.24492 118.336 9.5228C118.162 9.74412 118.059 10.0083 118.025 10.3174H120.207Z" fill="black"/>
<path d="M53.6452 30.7164H51.3742L50.1302 26.9051H45.8062L44.6212 30.7164H42.4102L46.6942 17.7411H49.3402L53.6452 30.7164ZM49.7552 25.3061L48.6302 21.918C48.5112 21.5718 48.2882 20.7567 47.9592 19.4736H47.9192C47.7882 20.0255 47.5772 20.8406 47.2872 21.918L46.1822 25.3061H49.7552V25.3061Z" fill="black"/>
<path d="M64.6619 25.9233C64.6619 27.5145 64.2209 28.7722 63.3389 29.6956C62.5489 30.5175 61.5679 30.928 60.3969 30.928C59.1329 30.928 58.2249 30.4853 57.6719 29.6H57.6319V34.5286H55.4999V24.4403C55.4999 23.44 55.4729 22.4133 55.4209 21.3603H57.2959L57.4149 22.8433H57.4549C58.1659 21.7259 59.2449 21.1682 60.6929 21.1682C61.8249 21.1682 62.7699 21.604 63.5259 22.4767C64.2839 23.3503 64.6619 24.4988 64.6619 25.9233ZM62.4899 25.9993C62.4899 25.0887 62.2799 24.3379 61.8579 23.7471C61.3969 23.1309 60.7779 22.8228 60.0019 22.8228C59.4759 22.8228 58.9979 22.9944 58.5709 23.3327C58.1429 23.674 57.8629 24.1195 57.7319 24.6714C57.6659 24.9288 57.6329 25.1394 57.6329 25.3051V26.8651C57.6329 27.5457 57.8469 28.12 58.2749 28.5889C58.7029 29.0579 59.2589 29.2919 59.9429 29.2919C60.7459 29.2919 61.3709 28.9897 61.8179 28.3871C62.2659 27.7836 62.4899 26.988 62.4899 25.9993Z" fill="black"/>
<path d="M75.699 25.9233C75.699 27.5145 75.258 28.7722 74.375 29.6956C73.586 30.5175 72.605 30.928 71.434 30.928C70.17 30.928 69.262 30.4853 68.71 29.6H68.67V34.5286H66.538V24.4403C66.538 23.44 66.511 22.4133 66.459 21.3603H68.334L68.453 22.8433H68.493C69.203 21.7259 70.282 21.1682 71.731 21.1682C72.862 21.1682 73.807 21.604 74.565 22.4767C75.32 23.3503 75.699 24.4988 75.699 25.9233ZM73.527 25.9993C73.527 25.0887 73.316 24.3379 72.894 23.7471C72.433 23.1309 71.816 22.8228 71.039 22.8228C70.512 22.8228 70.035 22.9944 69.607 23.3327C69.179 23.674 68.9 24.1195 68.769 24.6714C68.704 24.9288 68.67 25.1394 68.67 25.3051V26.8651C68.67 27.5457 68.884 28.12 69.31 28.5889C69.738 29.0569 70.294 29.2919 70.98 29.2919C71.783 29.2919 72.408 28.9897 72.855 28.3871C73.303 27.7836 73.527 26.988 73.527 25.9993Z" fill="black"/>
<path d="M88.0392 27.0777C88.0392 28.1814 87.6462 29.0794 86.8572 29.7726C85.9902 30.5302 84.7832 30.9085 83.2322 30.9085C81.8002 30.9085 80.6522 30.6394 79.7832 30.1002L80.2772 28.3676C81.2132 28.9195 82.2402 29.1964 83.3592 29.1964C84.1622 29.1964 84.7872 29.0189 85.2362 28.666C85.6832 28.313 85.9062 27.8392 85.9062 27.2483C85.9062 26.7218 85.7222 26.2782 85.3532 25.9184C84.9862 25.5586 84.3732 25.2242 83.5172 24.9151C81.1872 24.0679 80.0232 22.8267 80.0232 21.1945C80.0232 20.1279 80.4312 19.2533 81.2482 18.5728C82.0622 17.8912 83.1482 17.551 84.5062 17.551C85.7172 17.551 86.7232 17.7567 87.5262 18.1672L86.9932 19.8617C86.2432 19.4639 85.3952 19.265 84.4462 19.265C83.6962 19.265 83.1102 19.4454 82.6902 19.8042C82.3352 20.125 82.1572 20.5159 82.1572 20.9791C82.1572 21.4919 82.3602 21.916 82.7682 22.2495C83.1232 22.5576 83.7682 22.891 84.7042 23.2508C85.8492 23.7003 86.6902 24.2258 87.2312 24.8284C87.7702 25.429 88.0392 26.1807 88.0392 27.0777Z" fill="black"/>
<path d="M95.0881 22.9203H92.7381V27.4628C92.7381 28.6182 93.1521 29.1954 93.9821 29.1954C94.3631 29.1954 94.6791 29.1632 94.9291 29.0989L94.9881 30.6774C94.5681 30.8305 94.0151 30.9075 93.3301 30.9075C92.4881 30.9075 91.8301 30.6569 91.3551 30.1567C90.8821 29.6556 90.6441 28.8151 90.6441 27.6344V22.9183H89.2441V21.3583H90.6441V19.6453L92.7381 19.0291V21.3583H95.0881V22.9203Z" fill="black"/>
<path d="M105.691 25.9613C105.691 27.3994 105.269 28.5802 104.427 29.5035C103.544 30.4541 102.372 30.928 100.911 30.928C99.503 30.928 98.382 30.4726 97.546 29.562C96.71 28.6513 96.292 27.5018 96.292 26.1163C96.292 24.6665 96.722 23.479 97.585 22.5556C98.446 21.6313 99.608 21.1692 101.069 21.1692C102.477 21.1692 103.61 21.6245 104.465 22.5361C105.283 23.4205 105.691 24.5622 105.691 25.9613ZM103.479 26.0286C103.479 25.1657 103.29 24.4257 102.907 23.8085C102.46 23.0617 101.821 22.6892 100.993 22.6892C100.136 22.6892 99.485 23.0626 99.038 23.8085C98.655 24.4267 98.466 25.1784 98.466 26.0676C98.466 26.9305 98.655 27.6705 99.038 28.2867C99.499 29.0335 100.143 29.406 100.974 29.406C101.788 29.406 102.427 29.0257 102.888 28.2672C103.281 27.6383 103.479 26.8905 103.479 26.0286Z" fill="black"/>
<path d="M112.621 23.1884C112.41 23.1504 112.185 23.1309 111.949 23.1309C111.199 23.1309 110.619 23.4068 110.211 23.9596C109.856 24.4471 109.678 25.0633 109.678 25.8073V30.7164H107.547L107.567 24.3067C107.567 23.2284 107.54 22.2466 107.487 21.3613H109.344L109.422 23.1514H109.481C109.706 22.5361 110.061 22.0408 110.547 21.6694C111.022 21.3349 111.535 21.1682 112.088 21.1682C112.285 21.1682 112.463 21.1819 112.621 21.2062V23.1884Z" fill="black"/>
<path d="M122.156 25.5957C122.156 25.9681 122.131 26.2821 122.078 26.5385H115.682C115.707 27.4628 116.016 28.1697 116.61 28.6572C117.149 29.093 117.846 29.3114 118.702 29.3114C119.649 29.3114 120.513 29.1642 121.29 28.8688L121.624 30.3118C120.716 30.6979 119.644 30.8899 118.407 30.8899C116.919 30.8899 115.751 30.4629 114.901 29.6098C114.053 28.7566 113.628 27.611 113.628 26.1739C113.628 24.763 114.023 23.5882 114.814 22.6512C115.642 21.6508 116.761 21.1507 118.169 21.1507C119.552 21.1507 120.599 21.6508 121.31 22.6512C121.873 23.4458 122.156 24.4286 122.156 25.5957ZM120.123 25.0565C120.137 24.4403 119.998 23.908 119.709 23.4585C119.34 22.8803 118.773 22.5917 118.01 22.5917C117.313 22.5917 116.746 22.8735 116.313 23.439C115.958 23.8885 115.747 24.4276 115.682 25.0555H120.123V25.0565Z" fill="black"/>
</svg>
