<svg width="203" height="203" viewBox="0 0 203 203" fill="none" xmlns="http://www.w3.org/2000/svg">
<g opacity="0.1" clip-path="url(#clip0_3388_4889)">
<path d="M101.5 46.5208C109.352 46.5208 116.882 49.6398 122.434 55.1917C127.985 60.7435 131.104 68.2735 131.104 76.125C131.104 83.9765 127.985 91.5064 122.434 97.0583C116.882 102.61 109.352 105.729 101.5 105.729C93.6487 105.729 86.1188 102.61 80.5669 97.0583C75.0151 91.5064 71.8961 83.9765 71.8961 76.125C71.8961 68.2735 75.0151 60.7435 80.5669 55.1917C86.1188 49.6398 93.6487 46.5208 101.5 46.5208ZM42.2919 67.6666C47.0286 67.6666 51.4269 68.9354 55.2332 71.2191C53.9644 83.3146 57.5169 95.3254 64.7911 104.714C60.5619 112.834 52.1036 118.417 42.2919 118.417C35.562 118.417 29.1078 115.743 24.3491 110.984C19.5903 106.226 16.9169 99.7715 16.9169 93.0416C16.9169 86.3118 19.5903 79.8575 24.3491 75.0988C29.1078 70.3401 35.562 67.6666 42.2919 67.6666ZM160.709 67.6666C167.438 67.6666 173.893 70.3401 178.651 75.0988C183.41 79.8575 186.084 86.3118 186.084 93.0416C186.084 99.7715 183.41 106.226 178.651 110.984C173.893 115.743 167.438 118.417 160.709 118.417C150.897 118.417 142.439 112.834 138.209 104.714C145.584 95.1936 149.007 83.1978 147.767 71.2191C151.574 68.9354 155.972 67.6666 160.709 67.6666ZM46.5211 154.365C46.5211 136.856 71.1348 122.646 101.5 122.646C131.866 122.646 156.479 136.856 156.479 154.365V169.167H46.5211V154.365ZM0.000244141 169.167V156.479C0.000244141 144.722 15.9865 134.826 37.6398 131.95C32.6494 137.702 29.6044 145.652 29.6044 154.365V169.167H0.000244141ZM203 169.167H173.396V154.365C173.396 145.652 170.351 137.702 165.361 131.95C187.014 134.826 203 144.722 203 156.479V169.167Z" fill="#2EA2CF"/>
</g>
<defs>
<clipPath id="clip0_3388_4889">
<rect width="203" height="203" fill="white" transform="translate(0.000244141)"/>
</clipPath>
</defs>
</svg>
