<svg width="54" height="54" viewBox="0 0 54 54" fill="none" xmlns="http://www.w3.org/2000/svg">
<circle cx="27" cy="27" r="27" fill="#2EA2CF"/>
<path d="M27 20.5C27.9283 20.5 28.8185 20.8687 29.4749 21.5251C30.1313 22.1815 30.5 23.0717 30.5 24C30.5 24.9283 30.1313 25.8185 29.4749 26.4749C28.8185 27.1313 27.9283 27.5 27 27.5C26.0717 27.5 25.1815 27.1313 24.5251 26.4749C23.8687 25.8185 23.5 24.9283 23.5 24C23.5 23.0717 23.8687 22.1815 24.5251 21.5251C25.1815 20.8687 26.0717 20.5 27 20.5ZM20 23C20.56 23 21.08 23.15 21.53 23.42C21.38 24.85 21.8 26.27 22.66 27.38C22.16 28.34 21.16 29 20 29C19.2044 29 18.4413 28.6839 17.8787 28.1213C17.3161 27.5587 17 26.7956 17 26C17 25.2044 17.3161 24.4413 17.8787 23.8787C18.4413 23.3161 19.2044 23 20 23ZM34 23C34.7956 23 35.5587 23.3161 36.1213 23.8787C36.6839 24.4413 37 25.2044 37 26C37 26.7956 36.6839 27.5587 36.1213 28.1213C35.5587 28.6839 34.7956 29 34 29C32.84 29 31.84 28.34 31.34 27.38C32.2119 26.2544 32.6166 24.8362 32.47 23.42C32.92 23.15 33.44 23 34 23ZM20.5 33.25C20.5 31.18 23.41 29.5 27 29.5C30.59 29.5 33.5 31.18 33.5 33.25V35H20.5V33.25ZM15 35V33.5C15 32.11 16.89 30.94 19.45 30.6C18.86 31.28 18.5 32.22 18.5 33.25V35H15ZM39 35H35.5V33.25C35.5 32.22 35.14 31.28 34.55 30.6C37.11 30.94 39 32.11 39 33.5V35Z" fill="white"/>
</svg>
