<svg width="25" height="25" viewBox="0 0 25 25" fill="none" xmlns="http://www.w3.org/2000/svg">
<path d="M20.5 4.10938H4.5C3.4 4.10938 2.5 5.00937 2.5 6.10938V18.1094C2.5 19.2094 3.4 20.1094 4.5 20.1094H20.5C21.6 20.1094 22.5 19.2094 22.5 18.1094V6.10938C22.5 5.00937 21.6 4.10938 20.5 4.10938ZM20.1 8.35938L13.56 12.4494C12.91 12.8594 12.09 12.8594 11.44 12.4494L4.9 8.35938C4.79973 8.30309 4.71192 8.22704 4.64189 8.13583C4.57186 8.04462 4.52106 7.94015 4.49258 7.82875C4.46409 7.71734 4.4585 7.60131 4.47616 7.48768C4.49381 7.37405 4.53434 7.26519 4.59528 7.16768C4.65623 7.07016 4.73632 6.98603 4.83073 6.92037C4.92513 6.85471 5.03187 6.80889 5.1445 6.78567C5.25712 6.76246 5.37328 6.76234 5.48595 6.78532C5.59863 6.8083 5.70546 6.85391 5.8 6.91937L12.5 11.1094L19.2 6.91937C19.2945 6.85391 19.4014 6.8083 19.514 6.78532C19.6267 6.76234 19.7429 6.76246 19.8555 6.78567C19.9681 6.80889 20.0749 6.85471 20.1693 6.92037C20.2637 6.98603 20.3438 7.07016 20.4047 7.16768C20.4657 7.26519 20.5062 7.37405 20.5238 7.48768C20.5415 7.60131 20.5359 7.71734 20.5074 7.82875C20.4789 7.94015 20.4281 8.04462 20.3581 8.13583C20.2881 8.22704 20.2003 8.30309 20.1 8.35938Z" fill="#949494"/>
</svg>
