<svg width="186" height="186" viewBox="0 0 186 186" fill="none" xmlns="http://www.w3.org/2000/svg">
<g opacity="0.1">
<path d="M15.5 170.5V155C15.5 155 54.25 139.5 93 139.5C131.75 139.5 170.5 155 170.5 155V170.5H15.5ZM87.575 70.5254C78.275 40.3004 31 47.2754 31 47.2754C31 47.2754 32.55 107.725 76.725 98.4254C73.625 75.9504 62 69.7504 62 69.7504C83.7 69.7504 85.25 96.1004 85.25 96.1004V131.75H100.75V99.2004C100.75 99.2004 100.75 68.9754 124 61.2254C124 61.2254 108.5 84.4754 108.5 99.9754C162.75 105.4 162.75 31.0004 162.75 31.0004C162.75 31.0004 93.775 23.2504 87.575 70.5254Z" fill="#1DB559"/>
</g>
</svg>
