<svg width="54" height="54" viewBox="0 0 54 54" fill="none" xmlns="http://www.w3.org/2000/svg">
<circle cx="27" cy="27" r="27" fill="#1DB559"/>
<path d="M17 37.0004V35.0004C17 35.0004 22 33.0004 27 33.0004C32 33.0004 37 35.0004 37 35.0004V37.0004H17ZM26.3 24.1004C25.1 20.2004 19 21.1004 19 21.1004C19 21.1004 19.2 28.9004 24.9 27.7004C24.5 24.8004 23 24.0004 23 24.0004C25.8 24.0004 26 27.4004 26 27.4004V32.0004H28V27.8004C28 27.8004 28 23.9004 31 22.9004C31 22.9004 29 25.9004 29 27.9004C36 28.6004 36 19.0004 36 19.0004C36 19.0004 27.1 18.0004 26.3 24.1004Z" fill="white"/>
</svg>
