<svg width="135" height="39" viewBox="0 0 135 39" fill="none" xmlns="http://www.w3.org/2000/svg">
<path d="M130 39H5C2.25125 39 0 36.805 0 34.125V4.87501C0 2.19498 2.25125 6.19888e-06 5 6.19888e-06H130C132.749 6.19888e-06 135 2.19498 135 4.87501V34.125C135 36.805 132.749 39 130 39Z" fill="white"/>
<path d="M130 0.781223C132.315 0.781223 134.199 2.61788 134.199 4.87501V34.125C134.199 36.3821 132.315 38.2188 130 38.2188H5C2.685 38.2188 0.80125 36.3821 0.80125 34.125V4.87501C0.80125 2.61788 2.685 0.781223 5 0.781223H130ZM130 6.19888e-06H5C2.25125 6.19888e-06 0 2.19498 0 4.87501V34.125C0 36.805 2.25125 39 5 39H130C132.749 39 135 36.805 135 34.125V4.87501C135 2.19498 132.749 6.19888e-06 130 6.19888e-06Z" fill="#A6A6A6"/>
<path d="M10.4354 7.35058C10.1417 7.65039 9.97168 8.11717 9.97168 8.72167V30.2838C9.97168 30.8883 10.1417 31.3551 10.4354 31.6549L10.5079 31.7207L22.9004 19.6429V19.3577L10.5079 7.27989L10.4354 7.35058Z" fill="url(#paint0_linear_2735_5750)"/>
<path d="M27.0266 23.6709L22.9004 19.6429V19.3577L27.0316 15.3298L27.1241 15.3822L32.0166 18.0963C33.4129 18.8666 33.4129 20.1341 32.0166 20.9092L27.1241 23.6185L27.0266 23.6709Z" fill="url(#paint1_linear_2735_5750)"/>
<path d="M27.1243 23.6182L22.9005 19.5L10.4355 31.6546C10.8993 32.1299 11.6555 32.1872 12.5155 31.7119L27.1243 23.6182Z" fill="url(#paint2_linear_2735_5750)"/>
<path d="M27.1243 15.3818L12.5155 7.28813C11.6555 6.81769 10.8993 6.87497 10.4355 7.35028L22.9005 19.5L27.1243 15.3818Z" fill="url(#paint3_linear_2735_5750)"/>
<path d="M47.4175 9.98764C47.4175 10.8018 47.1675 11.4538 46.675 11.9401C46.1088 12.5165 45.3713 12.8066 44.4675 12.8066C43.6038 12.8066 42.8663 12.5117 42.2613 11.9303C41.655 11.3405 41.3525 10.6165 41.3525 9.74998C41.3525 8.88345 41.655 8.15952 42.2613 7.57452C42.8663 6.9883 43.6038 6.69336 44.4675 6.69336C44.8975 6.69336 45.3075 6.77989 45.6988 6.94077C46.0888 7.10286 46.4063 7.32223 46.6363 7.5928L46.1138 8.10711C45.7125 7.6452 45.1663 7.4173 44.4675 7.4173C43.8375 7.4173 43.2913 7.6318 42.8275 8.06445C42.3688 8.49833 42.1388 9.06017 42.1388 9.74998C42.1388 10.4398 42.3688 11.0065 42.8275 11.4404C43.2913 11.8682 43.8375 12.0875 44.4675 12.0875C45.1363 12.0875 45.6988 11.8682 46.1425 11.4355C46.435 11.1491 46.6013 10.7542 46.645 10.2497H44.4675V9.54523H47.3725C47.4075 9.69758 47.4175 9.84505 47.4175 9.98764Z" fill="black" stroke="black" stroke-width="0.04" stroke-miterlimit="10"/>
<path d="M52.0257 7.54499H49.2969V9.39749H51.7569V10.1019H49.2969V11.9544H52.0257V12.6723H48.5244V6.82715H52.0257V7.54499Z" fill="black" stroke="black" stroke-width="0.04" stroke-miterlimit="10"/>
<path d="M55.2783 12.6723H54.5058V7.54499H52.832V6.82715H56.9533V7.54499H55.2783V12.6723Z" fill="black" stroke="black" stroke-width="0.04" stroke-miterlimit="10"/>
<path d="M59.9365 12.6723V6.82715H60.7078V12.6723H59.9365Z" fill="black" stroke="black" stroke-width="0.04" stroke-miterlimit="10"/>
<path d="M64.1259 12.6723H63.3597V7.54499H61.6797V6.82715H65.8059V7.54499H64.1259V12.6723Z" fill="black" stroke="black" stroke-width="0.04" stroke-miterlimit="10"/>
<path d="M73.6089 11.9206C73.0177 12.5117 72.2852 12.8066 71.4114 12.8066C70.5327 12.8066 69.8002 12.5117 69.2089 11.9206C68.6189 11.3307 68.3252 10.6068 68.3252 9.74998C68.3252 8.8932 68.6189 8.16927 69.2089 7.57939C69.8002 6.9883 70.5327 6.69336 71.4114 6.69336C72.2802 6.69336 73.0127 6.9883 73.6039 7.58427C74.1989 8.17901 74.4927 8.89808 74.4927 9.74998C74.4927 10.6068 74.1989 11.3307 73.6089 11.9206ZM69.7802 11.4306C70.2252 11.8682 70.7664 12.0875 71.4114 12.0875C72.0514 12.0875 72.5977 11.8682 73.0377 11.4306C73.4814 10.9931 73.7064 10.4313 73.7064 9.74998C73.7064 9.0687 73.4814 8.50686 73.0377 8.06933C72.5977 7.6318 72.0514 7.41242 71.4114 7.41242C70.7664 7.41242 70.2252 7.6318 69.7802 8.06933C69.3364 8.50686 69.1114 9.0687 69.1114 9.74998C69.1114 10.4313 69.3364 10.9931 69.7802 11.4306Z" fill="black" stroke="black" stroke-width="0.04" stroke-miterlimit="10"/>
<path d="M75.5762 12.6723V6.82715H76.5137L79.4287 11.3731H79.4624L79.4287 10.2494V6.82715H80.1999V12.6723H79.3949L76.3424 7.90209H76.3087L76.3424 9.03065V12.6723H75.5762Z" fill="black" stroke="black" stroke-width="0.04" stroke-miterlimit="10"/>
<path d="M68.135 21.2087C65.7863 21.2087 63.8675 22.9515 63.8675 25.3561C63.8675 27.7412 65.7863 29.5023 68.135 29.5023C70.4888 29.5023 72.4075 27.7412 72.4075 25.3561C72.4075 22.9515 70.4888 21.2087 68.135 21.2087ZM68.135 27.8692C66.8463 27.8692 65.7375 26.832 65.7375 25.3561C65.7375 23.8607 66.8463 22.8418 68.135 22.8418C69.4238 22.8418 70.5375 23.8607 70.5375 25.3561C70.5375 26.832 69.4238 27.8692 68.135 27.8692ZM58.8238 21.2087C56.47 21.2087 54.5563 22.9515 54.5563 25.3561C54.5563 27.7412 56.47 29.5023 58.8238 29.5023C61.1763 29.5023 63.0913 27.7412 63.0913 25.3561C63.0913 22.9515 61.1763 21.2087 58.8238 21.2087ZM58.8238 27.8692C57.5338 27.8692 56.4213 26.832 56.4213 25.3561C56.4213 23.8607 57.5338 22.8418 58.8238 22.8418C60.1125 22.8418 61.2213 23.8607 61.2213 25.3561C61.2213 26.832 60.1125 27.8692 58.8238 27.8692ZM47.7438 22.4799V24.2422H52.06C51.9338 25.2269 51.5963 25.9509 51.0788 26.4554C50.4488 27.0648 49.4675 27.7412 47.7438 27.7412C45.0875 27.7412 43.0075 25.6511 43.0075 23.0612C43.0075 20.4714 45.0875 18.3812 47.7438 18.3812C49.18 18.3812 50.225 18.9284 50.9963 19.6377L52.27 18.3958C51.1913 17.3916 49.7563 16.6201 47.7438 16.6201C44.1013 16.6201 41.04 19.5098 41.04 23.0612C41.04 26.6127 44.1013 29.5023 47.7438 29.5023C49.7125 29.5023 51.1913 28.8734 52.3538 27.6937C53.545 26.5322 53.9163 24.8991 53.9163 23.5804C53.9163 23.1709 53.8813 22.7943 53.8188 22.4799H47.7438ZM93.0513 23.8461C92.7 22.9186 91.6163 21.2087 89.4088 21.2087C87.2213 21.2087 85.4 22.8894 85.4 25.3561C85.4 27.6791 87.2025 29.5023 89.6188 29.5023C91.5725 29.5023 92.7 28.3408 93.1638 27.6644L91.7138 26.7223C91.23 27.4122 90.5713 27.8692 89.6188 27.8692C88.6725 27.8692 87.9938 27.4463 87.5588 26.6127L93.2475 24.3177L93.0513 23.8461ZM87.2513 25.2269C87.2025 23.6279 88.525 22.8089 89.4725 22.8089C90.215 22.8089 90.845 23.1709 91.055 23.6889L87.2513 25.2269ZM82.6275 29.25H84.4975V17.0625H82.6275V29.25ZM79.565 22.1325H79.5025C79.0825 21.6475 78.2813 21.2087 77.2663 21.2087C75.1363 21.2087 73.1888 23.032 73.1888 25.3695C73.1888 27.6937 75.1363 29.5023 77.2663 29.5023C78.2813 29.5023 79.0825 29.0599 79.5025 28.5602H79.565V29.155C79.565 30.7406 78.6963 31.5925 77.295 31.5925C76.1525 31.5925 75.4438 30.7881 75.1513 30.1117L73.525 30.7735C73.9938 31.8728 75.235 33.2256 77.295 33.2256C79.4875 33.2256 81.3375 31.9678 81.3375 28.9076V21.461H79.565V22.1325ZM77.4263 27.8692C76.1375 27.8692 75.0588 26.8174 75.0588 25.3695C75.0588 23.9082 76.1375 22.8418 77.4263 22.8418C78.6963 22.8418 79.6975 23.9082 79.6975 25.3695C79.6975 26.8174 78.6963 27.8692 77.4263 27.8692ZM101.806 17.0625H97.3338V29.25H99.1988V24.6322H101.806C103.878 24.6322 105.909 23.1709 105.909 20.8467C105.909 18.5238 103.873 17.0625 101.806 17.0625ZM101.855 22.9369H99.1988V18.7578H101.855C103.248 18.7578 104.043 19.8852 104.043 20.8467C104.043 21.7901 103.248 22.9369 101.855 22.9369ZM113.384 21.1856C112.036 21.1856 110.635 21.7657 110.059 23.0515L111.714 23.7279C112.07 23.0515 112.725 22.8321 113.418 22.8321C114.385 22.8321 115.366 23.3988 115.381 24.3994V24.5274C115.044 24.3372 114.321 24.0557 113.433 24.0557C111.65 24.0557 109.834 25.0124 109.834 26.7979C109.834 28.431 111.294 29.4828 112.935 29.4828C114.19 29.4828 114.883 28.9307 115.318 28.2884H115.381V29.2305H117.183V24.5554C117.183 22.3946 115.528 21.1856 113.384 21.1856ZM113.159 27.8643C112.549 27.8643 111.699 27.5694 111.699 26.832C111.699 25.8887 112.759 25.5267 113.676 25.5267C114.498 25.5267 114.883 25.7035 115.381 25.9362C115.235 27.0648 114.239 27.8643 113.159 27.8643ZM123.745 21.4525L121.601 26.7357H121.538L119.321 21.4525H117.31L120.64 28.8356L118.74 32.9441H120.689L125.82 21.4525H123.745ZM106.934 29.25H108.804V17.0625H106.934V29.25Z" fill="black"/>
<defs>
<linearGradient id="paint0_linear_2735_5750" x1="21.8001" y1="30.5083" x2="5.44252" y2="13.7313" gradientUnits="userSpaceOnUse">
<stop stop-color="#00A0FF"/>
<stop offset="0.0066" stop-color="#00A1FF"/>
<stop offset="0.2601" stop-color="#00BEFF"/>
<stop offset="0.5122" stop-color="#00D2FF"/>
<stop offset="0.7604" stop-color="#00DFFF"/>
<stop offset="1" stop-color="#00E3FF"/>
</linearGradient>
<linearGradient id="paint1_linear_2735_5750" x1="33.8348" y1="19.499" x2="9.6379" y2="19.499" gradientUnits="userSpaceOnUse">
<stop stop-color="#FFE000"/>
<stop offset="0.4087" stop-color="#FFBD00"/>
<stop offset="0.7754" stop-color="#FFA500"/>
<stop offset="1" stop-color="#FF9C00"/>
</linearGradient>
<linearGradient id="paint2_linear_2735_5750" x1="24.8275" y1="17.2613" x2="2.64532" y2="-5.48969" gradientUnits="userSpaceOnUse">
<stop stop-color="#FF3A44"/>
<stop offset="1" stop-color="#C31162"/>
</linearGradient>
<linearGradient id="paint3_linear_2735_5750" x1="7.29785" y1="38.8282" x2="17.2032" y2="28.669" gradientUnits="userSpaceOnUse">
<stop stop-color="#32A071"/>
<stop offset="0.0685" stop-color="#2DA771"/>
<stop offset="0.4762" stop-color="#15CF74"/>
<stop offset="0.8009" stop-color="#06E775"/>
<stop offset="1" stop-color="#00F076"/>
</linearGradient>
</defs>
</svg>
