<svg width="54" height="54" viewBox="0 0 54 54" fill="none" xmlns="http://www.w3.org/2000/svg">
<circle cx="27" cy="27" r="27" fill="#F67218"/>
<path d="M23.2499 20.25C23.25 19.5404 23.4514 18.8455 23.8308 18.2458C24.2101 17.6462 24.7518 17.1665 25.3929 16.8624C26.034 16.5583 26.7482 16.4424 27.4526 16.528C28.157 16.6137 28.8226 16.8974 29.3721 17.3463C29.9217 17.7952 30.3326 18.3907 30.5571 19.0638C30.7817 19.7369 30.8107 20.4599 30.6407 21.1488C30.4708 21.8377 30.1088 22.4643 29.597 22.9557C29.0851 23.4471 28.4444 23.7832 27.7491 23.925V26.25H31.7001C32.2436 26.25 32.7649 26.4659 33.1492 26.8501C33.5336 27.2343 33.7497 27.7555 33.7499 28.299V30.075C34.6584 30.2632 35.4649 30.7814 36.0137 31.5294C36.5625 32.2775 36.8147 33.2024 36.7214 34.1255C36.6282 35.0486 36.1962 35.9044 35.5089 36.5277C34.8215 37.1509 33.9277 37.4973 32.9999 37.5C32.0699 37.5009 31.1728 37.1563 30.4826 36.533C29.7925 35.9097 29.3585 35.0521 29.2651 34.1269C29.1716 33.2016 29.4253 32.2746 29.9769 31.5259C30.5284 30.7772 31.3385 30.2601 32.2499 30.075V28.299C32.2499 28.1532 32.1919 28.0134 32.0889 27.9103C31.9858 27.8072 31.8459 27.7493 31.7001 27.7493H22.2996C22.1538 27.7493 22.014 27.8072 21.9109 27.9103C21.8078 28.0134 21.7499 28.1532 21.7499 28.299V30.075C22.6584 30.2632 23.4649 30.7814 24.0137 31.5294C24.5625 32.2775 24.8147 33.2024 24.7214 34.1255C24.6282 35.0486 24.1962 35.9044 23.5089 36.5277C22.8215 37.1509 21.9277 37.4973 20.9999 37.5C20.0699 37.5009 19.1728 37.1563 18.4826 36.533C17.7925 35.9097 17.3585 35.0521 17.2651 34.1269C17.1716 33.2016 17.4253 32.2746 17.9769 31.5259C18.5284 30.7772 19.3385 30.2601 20.2499 30.075V28.299C20.2499 28.0298 20.3029 27.7633 20.4059 27.5146C20.5089 27.2659 20.6599 27.0399 20.8502 26.8496C21.0406 26.6593 21.2665 26.5083 21.5152 26.4053C21.7639 26.3023 22.0304 26.2493 22.2996 26.2493H26.2499V23.9243C25.4031 23.7511 24.6421 23.2909 24.0955 22.6214C23.5488 21.952 23.2501 21.1143 23.2499 20.25Z" fill="white"/>
</svg>
