<svg width="169" height="169" viewBox="0 0 169 169" fill="none" xmlns="http://www.w3.org/2000/svg">
<g opacity="0.1">
<path d="M58.094 36.9688C58.0948 31.9723 59.5132 27.0785 62.1843 22.856C64.8555 18.6335 68.6699 15.2554 73.1844 13.1143C77.6988 10.9731 82.7281 10.1568 87.6881 10.7599C92.648 11.3631 97.3351 13.3612 101.205 16.5219C105.074 19.6827 107.968 23.8765 109.549 28.6162C111.13 33.3559 111.335 38.4469 110.138 43.298C108.941 48.149 106.393 52.561 102.788 56.0214C99.184 59.4818 94.6719 61.8486 89.7762 62.8469V79.2188H117.598C121.425 79.2188 125.095 80.7387 127.802 83.4444C130.509 86.1501 132.03 89.82 132.031 93.6471V106.153C138.429 107.478 144.108 111.127 147.973 116.395C151.837 121.663 153.613 128.175 152.956 134.676C152.3 141.176 149.258 147.202 144.418 151.591C139.578 155.979 133.283 158.418 126.75 158.438C120.202 158.444 113.884 156.017 109.025 151.628C104.165 147.239 101.109 141.2 100.451 134.685C99.793 128.17 101.579 121.642 105.463 116.37C109.347 111.097 115.051 107.456 121.469 106.153V93.6471C121.469 92.6204 121.061 91.6358 120.335 90.9098C119.609 90.1838 118.625 89.776 117.598 89.776H51.4026C50.3759 89.776 49.3913 90.1838 48.6653 90.9098C47.9393 91.6358 47.5315 92.6204 47.5315 93.6471V106.153C53.9289 107.478 59.6084 111.127 63.4729 116.395C67.3374 121.663 69.1128 128.175 68.4562 134.676C67.7997 141.176 64.7577 147.202 59.9178 151.591C55.0779 155.979 48.7835 158.418 42.2502 158.438C35.7017 158.444 29.3844 156.017 24.5246 151.628C19.6648 147.239 16.6092 141.2 15.9511 134.685C15.293 128.17 17.0793 121.642 20.9632 116.37C24.847 111.097 30.5514 107.456 36.969 106.153V93.6471C36.969 91.7517 37.3423 89.8748 38.0677 88.1236C38.793 86.3724 39.8562 84.7813 41.1965 83.441C42.5368 82.1007 44.1279 81.0375 45.8791 80.3122C47.6303 79.5868 49.5072 79.2135 51.4026 79.2135H79.219V62.8416C73.2563 61.6225 67.8975 58.3819 64.0484 53.6677C60.1993 48.9534 58.0959 43.0548 58.094 36.9688Z" fill="#F67218"/>
</g>
</svg>
