<svg width="161" height="113" viewBox="0 0 161 113" fill="none" xmlns="http://www.w3.org/2000/svg">
<g opacity="0.2">
<path d="M51.5896 72.7123C51.5896 74.8606 50.7363 76.9208 49.2172 78.4399C47.6982 79.9589 45.6379 80.8123 43.4896 80.8123C41.3414 80.8123 39.2811 79.9589 37.7621 78.4399C36.243 76.9208 35.3896 74.8606 35.3896 72.7123C35.3896 70.564 36.243 68.5038 37.7621 66.9847C39.2811 65.4657 41.3414 64.6123 43.4896 64.6123C45.6379 64.6123 47.6982 65.4657 49.2172 66.9847C50.7363 68.5038 51.5896 70.564 51.5896 72.7123Z" fill="#263238"/>
<path fill-rule="evenodd" clip-rule="evenodd" d="M43.3741 26.3495C40.6606 26.3495 38.3319 27.1595 36.6916 28.3178C35.1121 29.4356 34.3305 30.7356 34.1037 31.8575C33.7685 33.3571 32.859 34.6656 31.5702 35.5022C30.2815 36.3389 28.7161 36.6372 27.2099 36.333C25.7038 36.0288 24.3769 35.1464 23.5138 33.8751C22.6508 32.6038 22.3204 31.0449 22.5936 29.5328C23.5129 24.9725 26.3398 21.2505 29.92 18.7193C33.646 16.0868 38.3683 14.6045 43.3741 14.6045C53.73 14.6045 64.4665 21.53 64.4665 32.6513C64.4665 39.0908 60.6393 44.2991 55.6821 47.3366C55.0242 47.7392 54.2934 48.0083 53.5315 48.1285C52.7696 48.2487 51.9915 48.2176 51.2416 48.0371C50.4917 47.8566 49.7847 47.5302 49.161 47.0764C48.5372 46.6227 48.009 46.0505 47.6064 45.3926C47.2037 44.7347 46.9347 44.0039 46.8145 43.242C46.6943 42.4801 46.7253 41.702 46.9058 40.9521C47.0863 40.2022 47.4128 39.4952 47.8665 38.8715C48.3203 38.2478 48.8925 37.7195 49.5504 37.3169C51.8589 35.9034 52.7215 34.1012 52.7215 32.6513C52.7215 30.3266 49.8258 26.3495 43.3741 26.3495Z" fill="#263238"/>
<path fill-rule="evenodd" clip-rule="evenodd" d="M43.3745 42.001C46.6145 42.001 49.247 44.6254 49.247 47.8735V53.9566C49.247 55.5141 48.6282 57.0078 47.5269 58.1091C46.4256 59.2104 44.9319 59.8291 43.3745 59.8291C41.817 59.8291 40.3233 59.2104 39.222 58.1091C38.1207 57.0078 37.502 55.5141 37.502 53.9566V47.8735C37.502 44.6335 40.1304 42.001 43.3745 42.001Z" fill="#263238"/>
<path fill-rule="evenodd" clip-rule="evenodd" d="M57.667 39.3143C58.0637 39.9763 58.326 40.71 58.4389 41.4735C58.5519 42.237 58.5132 43.0152 58.3251 43.7638C58.137 44.5123 57.8033 45.2164 57.3429 45.8358C56.8825 46.4553 56.3045 46.9779 55.642 47.3738L46.3918 52.9101C45.0556 53.7103 43.4562 53.947 41.9455 53.568C40.4348 53.189 39.1366 52.2254 38.3364 50.8892C37.5361 49.5529 37.2995 47.9536 37.6785 46.4429C38.0575 44.9322 39.0211 43.6339 40.3573 42.8337L49.6116 37.2933C50.2734 36.8972 51.0068 36.6354 51.7699 36.5229C52.5329 36.4103 53.3107 36.4491 54.0588 36.6372C54.8068 36.8252 55.5105 37.1588 56.1296 37.6188C56.7487 38.0788 57.2711 38.6563 57.667 39.3183V39.3143Z" fill="#263238"/>
</g>
<path d="M44.5498 68.8135C44.5498 70.1561 44.0164 71.4438 43.067 72.3932C42.1176 73.3426 40.83 73.876 39.4873 73.876C38.1446 73.876 36.857 73.3426 35.9076 72.3932C34.9582 71.4438 34.4248 70.1561 34.4248 68.8135C34.4248 67.4708 34.9582 66.1832 35.9076 65.2337C36.857 64.2843 38.1446 63.751 39.4873 63.751C40.83 63.751 42.1176 64.2843 43.067 65.2337C44.0164 66.1832 44.5498 67.4708 44.5498 68.8135Z" fill="#263238"/>
<path fill-rule="evenodd" clip-rule="evenodd" d="M39.325 19.4658C36.0566 19.4658 33.1528 20.4378 31.0103 21.9525C28.9448 23.4105 27.6691 25.2978 27.2762 27.2499C27.2041 27.6474 27.0534 28.0265 26.833 28.365C26.6126 28.7036 26.3269 28.9947 25.9925 29.2215C25.6582 29.4483 25.282 29.6061 24.8859 29.6857C24.4899 29.7652 24.0819 29.765 23.686 29.685C23.29 29.605 22.9139 29.4468 22.5798 29.2197C22.2458 28.9926 21.9603 28.7011 21.7403 28.3624C21.5202 28.0236 21.3699 27.6443 21.2982 27.2468C21.2265 26.8492 21.2349 26.4413 21.3227 26.047C22.076 22.3129 24.4088 19.1782 27.503 16.9912C30.7268 14.7151 34.874 13.3867 39.325 13.3867C48.7412 13.3867 57.5824 19.6035 57.5824 28.6026C57.5824 33.8352 54.472 38.2254 50.1547 40.87C49.4672 41.2911 48.6407 41.4218 47.8569 41.2334C47.073 41.0451 46.3961 40.5531 45.9751 39.8656C45.554 39.1782 45.4233 38.3516 45.6116 37.5678C45.8 36.784 46.292 36.1071 46.9795 35.686C49.9319 33.8797 51.5074 31.2594 51.5074 28.6026C51.5074 24.1516 46.7203 19.4658 39.325 19.4658ZM39.325 40.789C40.1306 40.789 40.9032 41.109 41.4728 41.6787C42.0424 42.2483 42.3625 43.0209 42.3625 43.8265V49.9096C42.3625 50.7152 42.0424 51.4878 41.4728 52.0575C40.9032 52.6271 40.1306 52.9471 39.325 52.9471C38.5194 52.9471 37.7468 52.6271 37.1771 52.0575C36.6075 51.4878 36.2875 50.7152 36.2875 49.9096V43.8265C36.2875 43.0209 36.6075 42.2483 37.1771 41.6787C37.7468 41.109 38.5194 40.789 39.325 40.789Z" fill="#263238"/>
<path fill-rule="evenodd" clip-rule="evenodd" d="M51.1831 36.7213C51.3882 37.0635 51.5239 37.4428 51.5824 37.8375C51.6409 38.2321 51.621 38.6345 51.524 39.0215C51.427 39.4085 51.2546 39.7726 51.0169 40.093C50.7791 40.4134 50.4805 40.6838 50.1382 40.8887L40.884 46.4291C40.5415 46.6425 40.16 46.7855 39.7616 46.8498C39.3633 46.9141 38.9561 46.8983 38.5639 46.8035C38.1717 46.7087 37.8023 46.5367 37.4774 46.2975C37.1524 46.0584 36.8783 45.7568 36.6711 45.4106C36.464 45.0643 36.3279 44.6803 36.2708 44.2808C36.2137 43.8814 36.2368 43.4746 36.3386 43.0841C36.4405 42.6937 36.6192 42.3275 36.8641 42.0069C37.1091 41.6863 37.4155 41.4177 37.7655 41.2168L47.0197 35.6764C47.7105 35.2635 48.537 35.1416 49.3176 35.3375C50.0982 35.5334 50.7692 36.0311 51.1831 36.7213Z" fill="#263238"/>
<g opacity="0.2">
<path d="M92.5896 101.712C92.5896 103.861 91.7363 105.921 90.2172 107.44C88.6982 108.959 86.6379 109.812 84.4896 109.812C82.3414 109.812 80.2811 108.959 78.7621 107.44C77.243 105.921 76.3896 103.861 76.3896 101.712C76.3896 99.564 77.243 97.5038 78.7621 95.9847C80.2811 94.4657 82.3414 93.6123 84.4896 93.6123C86.6379 93.6123 88.6982 94.4657 90.2172 95.9847C91.7363 97.5038 92.5896 99.564 92.5896 101.712Z" fill="#263238"/>
<path fill-rule="evenodd" clip-rule="evenodd" d="M84.3741 55.3495C81.6606 55.3495 79.3319 56.1595 77.6916 57.3178C76.1121 58.4356 75.3305 59.7356 75.1037 60.8575C74.7685 62.3571 73.859 63.6656 72.5702 64.5022C71.2815 65.3389 69.7161 65.6372 68.2099 65.333C66.7038 65.0288 65.3769 64.1464 64.5138 62.8751C63.6508 61.6038 63.3204 60.0449 63.5936 58.5328C64.5129 53.9725 67.3398 50.2505 70.92 47.7193C74.646 45.0868 79.3683 43.6045 84.3741 43.6045C94.73 43.6045 105.467 50.53 105.467 61.6513C105.467 68.0908 101.639 73.2991 96.6821 76.3366C96.0242 76.7392 95.2934 77.0083 94.5315 77.1285C93.7696 77.2487 92.9915 77.2176 92.2416 77.0371C91.4917 76.8566 90.7847 76.5302 90.161 76.0764C89.5372 75.6227 89.009 75.0505 88.6064 74.3926C88.2037 73.7347 87.9347 73.0039 87.8145 72.242C87.6943 71.4801 87.7253 70.702 87.9058 69.9521C88.0863 69.2022 88.4128 68.4952 88.8665 67.8715C89.3203 67.2478 89.8925 66.7195 90.5504 66.3169C92.8589 64.9034 93.7215 63.1012 93.7215 61.6513C93.7215 59.3266 90.8258 55.3495 84.3741 55.3495Z" fill="#263238"/>
<path fill-rule="evenodd" clip-rule="evenodd" d="M84.3745 71.001C87.6145 71.001 90.247 73.6254 90.247 76.8735V82.9566C90.247 84.5141 89.6282 86.0078 88.5269 87.1091C87.4256 88.2104 85.9319 88.8291 84.3745 88.8291C82.817 88.8291 81.3233 88.2104 80.222 87.1091C79.1207 86.0078 78.502 84.5141 78.502 82.9566V76.8735C78.502 73.6335 81.1304 71.001 84.3745 71.001Z" fill="#263238"/>
<path fill-rule="evenodd" clip-rule="evenodd" d="M98.667 68.3143C99.0637 68.9763 99.326 69.71 99.4389 70.4735C99.5519 71.237 99.5132 72.0152 99.3251 72.7638C99.137 73.5123 98.8033 74.2164 98.3429 74.8358C97.8825 75.4553 97.3045 75.9779 96.642 76.3738L87.3918 81.9101C86.0556 82.7103 84.4562 82.947 82.9455 82.568C81.4348 82.189 80.1366 81.2254 79.3364 79.8892C78.5361 78.5529 78.2995 76.9536 78.6785 75.4429C79.0575 73.9322 80.0211 72.6339 81.3573 71.8337L90.6116 66.2933C91.2734 65.8972 92.0068 65.6354 92.7699 65.5229C93.5329 65.4103 94.3107 65.4491 95.0588 65.6372C95.8068 65.8252 96.5105 66.1588 97.1296 66.6188C97.7487 67.0788 98.2711 67.6563 98.667 68.3183V68.3143Z" fill="#263238"/>
</g>
<path d="M85.5498 97.8135C85.5498 99.1561 85.0164 100.444 84.067 101.393C83.1176 102.343 81.83 102.876 80.4873 102.876C79.1446 102.876 77.857 102.343 76.9076 101.393C75.9582 100.444 75.4248 99.1561 75.4248 97.8135C75.4248 96.4708 75.9582 95.1832 76.9076 94.2337C77.857 93.2843 79.1446 92.751 80.4873 92.751C81.83 92.751 83.1176 93.2843 84.067 94.2337C85.0164 95.1832 85.5498 96.4708 85.5498 97.8135Z" fill="#263238"/>
<path fill-rule="evenodd" clip-rule="evenodd" d="M80.325 48.4658C77.0566 48.4658 74.1528 49.4378 72.0103 50.9525C69.9448 52.4105 68.6691 54.2978 68.2762 56.2499C68.2041 56.6474 68.0534 57.0265 67.833 57.365C67.6126 57.7036 67.3269 57.9947 66.9925 58.2215C66.6582 58.4483 66.282 58.6061 65.8859 58.6857C65.4899 58.7652 65.0819 58.765 64.686 58.685C64.29 58.605 63.9139 58.4468 63.5798 58.2197C63.2458 57.9926 62.9603 57.7011 62.7403 57.3624C62.5202 57.0236 62.3699 56.6443 62.2982 56.2468C62.2265 55.8492 62.2349 55.4413 62.3227 55.047C63.076 51.3129 65.4088 48.1782 68.503 45.9912C71.7268 43.7151 75.874 42.3867 80.325 42.3867C89.7412 42.3867 98.5824 48.6035 98.5824 57.6026C98.5824 62.8352 95.472 67.2254 91.1547 69.87C90.4672 70.2911 89.6407 70.4218 88.8569 70.2334C88.073 70.0451 87.3961 69.5531 86.9751 68.8656C86.554 68.1782 86.4233 67.3516 86.6116 66.5678C86.8 65.784 87.292 65.1071 87.9795 64.686C90.9319 62.8797 92.5074 60.2594 92.5074 57.6026C92.5074 53.1516 87.7203 48.4658 80.325 48.4658ZM80.325 69.789C81.1306 69.789 81.9032 70.109 82.4728 70.6787C83.0424 71.2483 83.3625 72.0209 83.3625 72.8265V78.9096C83.3625 79.7152 83.0424 80.4878 82.4728 81.0575C81.9032 81.6271 81.1306 81.9471 80.325 81.9471C79.5194 81.9471 78.7468 81.6271 78.1771 81.0575C77.6075 80.4878 77.2875 79.7152 77.2875 78.9096V72.8265C77.2875 72.0209 77.6075 71.2483 78.1771 70.6787C78.7468 70.109 79.5194 69.789 80.325 69.789Z" fill="#263238"/>
<path fill-rule="evenodd" clip-rule="evenodd" d="M92.1831 65.7213C92.3882 66.0635 92.5239 66.4428 92.5824 66.8375C92.6409 67.2321 92.621 67.6345 92.524 68.0215C92.427 68.4085 92.2546 68.7726 92.0169 69.093C91.7791 69.4134 91.4805 69.6838 91.1382 69.8887L81.884 75.4291C81.5415 75.6425 81.16 75.7855 80.7616 75.8498C80.3633 75.9141 79.9561 75.8983 79.5639 75.8035C79.1717 75.7087 78.8023 75.5367 78.4774 75.2975C78.1524 75.0584 77.8783 74.7568 77.6711 74.4106C77.464 74.0643 77.3279 73.6803 77.2708 73.2808C77.2137 72.8814 77.2368 72.4746 77.3386 72.0841C77.4405 71.6937 77.6192 71.3275 77.8641 71.0069C78.1091 70.6863 78.4155 70.4177 78.7655 70.2168L88.0197 64.6764C88.7105 64.2635 89.537 64.1416 90.3176 64.3375C91.0982 64.5334 91.7692 65.0311 92.1831 65.7213Z" fill="#263238"/>
<g opacity="0.2">
<path d="M131.59 69.7123C131.59 71.8606 130.736 73.9208 129.217 75.4399C127.698 76.9589 125.638 77.8123 123.49 77.8123C121.341 77.8123 119.281 76.9589 117.762 75.4399C116.243 73.9208 115.39 71.8606 115.39 69.7123C115.39 67.564 116.243 65.5038 117.762 63.9847C119.281 62.4657 121.341 61.6123 123.49 61.6123C125.638 61.6123 127.698 62.4657 129.217 63.9847C130.736 65.5038 131.59 67.564 131.59 69.7123Z" fill="#263238"/>
<path fill-rule="evenodd" clip-rule="evenodd" d="M123.374 23.3495C120.661 23.3495 118.332 24.1595 116.692 25.3178C115.112 26.4356 114.33 27.7356 114.104 28.8575C113.769 30.3571 112.859 31.6656 111.57 32.5022C110.281 33.3389 108.716 33.6372 107.21 33.333C105.704 33.0288 104.377 32.1464 103.514 30.8751C102.651 29.6038 102.32 28.0449 102.594 26.5328C103.513 21.9725 106.34 18.2505 109.92 15.7193C113.646 13.0868 118.368 11.6045 123.374 11.6045C133.73 11.6045 144.467 18.53 144.467 29.6513C144.467 36.0908 140.639 41.2991 135.682 44.3366C135.024 44.7392 134.293 45.0083 133.531 45.1285C132.77 45.2487 131.991 45.2176 131.242 45.0371C130.492 44.8566 129.785 44.5302 129.161 44.0764C128.537 43.6227 128.009 43.0505 127.606 42.3926C127.204 41.7347 126.935 41.0039 126.814 40.242C126.694 39.4801 126.725 38.702 126.906 37.9521C127.086 37.2022 127.413 36.4952 127.867 35.8715C128.32 35.2478 128.892 34.7195 129.55 34.3169C131.859 32.9034 132.722 31.1012 132.722 29.6513C132.722 27.3266 129.826 23.3495 123.374 23.3495Z" fill="#263238"/>
<path fill-rule="evenodd" clip-rule="evenodd" d="M123.374 39.001C126.614 39.001 129.247 41.6254 129.247 44.8735V50.9566C129.247 52.5141 128.628 54.0078 127.527 55.1091C126.426 56.2104 124.932 56.8291 123.374 56.8291C121.817 56.8291 120.323 56.2104 119.222 55.1091C118.121 54.0078 117.502 52.5141 117.502 50.9566V44.8735C117.502 41.6335 120.13 39.001 123.374 39.001Z" fill="#263238"/>
<path fill-rule="evenodd" clip-rule="evenodd" d="M137.667 36.3143C138.064 36.9763 138.326 37.71 138.439 38.4735C138.552 39.237 138.513 40.0152 138.325 40.7638C138.137 41.5123 137.803 42.2164 137.343 42.8358C136.882 43.4553 136.305 43.9779 135.642 44.3738L126.392 49.9101C125.056 50.7103 123.456 50.947 121.946 50.568C120.435 50.189 119.137 49.2254 118.336 47.8892C117.536 46.5529 117.299 44.9536 117.678 43.4429C118.057 41.9322 119.021 40.6339 120.357 39.8337L129.612 34.2933C130.273 33.8972 131.007 33.6354 131.77 33.5229C132.533 33.4103 133.311 33.4491 134.059 33.6372C134.807 33.8252 135.51 34.1588 136.13 34.6188C136.749 35.0788 137.271 35.6563 137.667 36.3183V36.3143Z" fill="#263238"/>
</g>
<path d="M124.55 65.8135C124.55 67.1561 124.016 68.4438 123.067 69.3932C122.118 70.3426 120.83 70.876 119.487 70.876C118.145 70.876 116.857 70.3426 115.908 69.3932C114.958 68.4438 114.425 67.1561 114.425 65.8135C114.425 64.4708 114.958 63.1832 115.908 62.2337C116.857 61.2843 118.145 60.751 119.487 60.751C120.83 60.751 122.118 61.2843 123.067 62.2337C124.016 63.1832 124.55 64.4708 124.55 65.8135Z" fill="#263238"/>
<path fill-rule="evenodd" clip-rule="evenodd" d="M119.325 16.4658C116.057 16.4658 113.153 17.4378 111.01 18.9525C108.945 20.4105 107.669 22.2978 107.276 24.2499C107.204 24.6474 107.053 25.0265 106.833 25.365C106.613 25.7036 106.327 25.9947 105.993 26.2215C105.658 26.4483 105.282 26.6061 104.886 26.6857C104.49 26.7652 104.082 26.765 103.686 26.685C103.29 26.605 102.914 26.4468 102.58 26.2197C102.246 25.9926 101.96 25.7011 101.74 25.3624C101.52 25.0236 101.37 24.6443 101.298 24.2468C101.227 23.8492 101.235 23.4413 101.323 23.047C102.076 19.3129 104.409 16.1782 107.503 13.9912C110.727 11.7151 114.874 10.3867 119.325 10.3867C128.741 10.3867 137.582 16.6035 137.582 25.6026C137.582 30.8352 134.472 35.2254 130.155 37.87C129.467 38.2911 128.641 38.4218 127.857 38.2334C127.073 38.0451 126.396 37.5531 125.975 36.8656C125.554 36.1782 125.423 35.3516 125.612 34.5678C125.8 33.784 126.292 33.1071 126.979 32.686C129.932 30.8797 131.507 28.2594 131.507 25.6026C131.507 21.1516 126.72 16.4658 119.325 16.4658ZM119.325 37.789C120.131 37.789 120.903 38.109 121.473 38.6787C122.042 39.2483 122.362 40.0209 122.362 40.8265V46.9096C122.362 47.7152 122.042 48.4878 121.473 49.0575C120.903 49.6271 120.131 49.9471 119.325 49.9471C118.519 49.9471 117.747 49.6271 117.177 49.0575C116.607 48.4878 116.287 47.7152 116.287 46.9096V40.8265C116.287 40.0209 116.607 39.2483 117.177 38.6787C117.747 38.109 118.519 37.789 119.325 37.789Z" fill="#263238"/>
<path fill-rule="evenodd" clip-rule="evenodd" d="M131.183 33.7213C131.388 34.0635 131.524 34.4428 131.582 34.8375C131.641 35.2321 131.621 35.6345 131.524 36.0215C131.427 36.4085 131.255 36.7726 131.017 37.093C130.779 37.4134 130.481 37.6838 130.138 37.8887L120.884 43.4291C120.542 43.6425 120.16 43.7855 119.762 43.8498C119.363 43.9141 118.956 43.8983 118.564 43.8035C118.172 43.7087 117.802 43.5367 117.477 43.2975C117.152 43.0584 116.878 42.7568 116.671 42.4106C116.464 42.0643 116.328 41.6803 116.271 41.2808C116.214 40.8814 116.237 40.4746 116.339 40.0841C116.441 39.6937 116.619 39.3275 116.864 39.0069C117.109 38.6863 117.416 38.4177 117.765 38.2168L127.02 32.6764C127.711 32.2635 128.537 32.1416 129.318 32.3375C130.098 32.5334 130.769 33.0311 131.183 33.7213Z" fill="#263238"/>
</svg>
