<svg width="17" height="15" viewBox="0 0 17 15" fill="none" xmlns="http://www.w3.org/2000/svg">
<path d="M15.253 4.03817C15.264 4.18917 15.264 4.34017 15.264 4.49217C15.264 9.09717 11.758 14.4042 5.351 14.4042C3.377 14.4042 1.543 13.8322 0 12.8402C0.281 12.8722 0.551 12.8822 0.842 12.8822C2.471 12.8822 3.969 12.3322 5.167 11.3942C3.635 11.3622 2.352 10.3582 1.91 8.97717C2.125 9.00917 2.341 9.03117 2.566 9.03117C2.88 9.03117 3.193 8.98817 3.484 8.91317C1.888 8.58917 0.69 7.18717 0.69 5.49417C0.69 5.48317 0.69 5.46117 0.69 5.45117C1.154 5.70917 1.693 5.87117 2.265 5.89317C1.327 5.26717 0.712 4.19917 0.712 2.99217C0.712 2.34517 0.885 1.75117 1.187 1.23317C2.902 3.34817 5.48 4.72917 8.371 4.87917C8.316 4.62017 8.284 4.35017 8.284 4.08017C8.284 2.16117 9.838 0.597168 11.768 0.597168C12.771 0.597168 13.677 1.01717 14.314 1.69717C15.101 1.54617 15.855 1.25517 16.525 0.856168C16.266 1.66517 15.716 2.34517 14.993 2.77517C15.695 2.70017 16.374 2.50617 17 2.23617C16.525 2.92617 15.932 3.54217 15.253 4.03817Z" fill="white"/>
</svg>
